<?xml version='1.0' encoding='iso-8859-1'?>
<svg version="1.1" xmlns="http://www.w3.org/2000/svg" viewBox="0 0 463.034 463.034" xmlns:xlink="http://www.w3.org/1999/xlink" enable-background="new 0 0 463.034 463.034" fill="#3e3f3a">
  <g>
    <g>
      <path d="m401.494,236.593l-27.313-54.627c-2.424-4.848-3.174-10.445-2.11-15.761l5.847-29.234c0.097-0.484 0.146-0.977 0.146-1.471 0-74.715-60.785-135.5-135.5-135.5h-32c-83.538,0-151.5,67.962-151.5,151.5 0,41.804 10.038,76.379 19.746,109.816 9.958,34.297 20.254,69.763 20.254,114.184 0,2.613 1.36,5.037 3.589,6.399l128.458,78.502c2.87,1.754 6.046,2.633 9.229,2.633 2.967,0 5.94-0.765 8.674-2.298 5.667-3.178 9.05-8.954 9.05-15.451v-29.785c0-22.332 18.168-40.5 40.5-40.5h26.556c20.38,0 37.671-15.91 39.364-36.22l5.17-62.038 19.551-7.821c6.084-2.434 10.909-7.342 13.238-13.468 2.327-6.124 1.982-12.999-0.949-18.86zm-13.073,13.53c-0.855,2.248-2.556,3.978-4.789,4.872l-23.855,9.542c-2.637,1.055-4.453,3.51-4.688,6.34l-5.555,66.657c-1.05,12.598-11.774,22.466-24.416,22.466h-26.556c-30.603,0-55.5,24.897-55.5,55.5v29.786c0,1.384-0.869,2.078-1.387,2.368-0.518,0.291-1.563,0.67-2.744-0.051l-124.898-76.327c-0.616-44.551-10.882-79.912-20.819-114.142-9.849-33.922-19.151-65.964-19.151-105.634 0-75.266 61.233-136.5 136.5-136.5h32c66.201,0 120.104,53.659 120.498,119.768l-5.699,28.495c-1.714,8.57-0.505,17.595 3.403,25.411l27.313,54.626c1.076,2.152 1.197,4.575 0.343,6.823z"/>
      <path d="m234.563,143c4.142,0 7.5-3.358 7.5-7.5s-3.358-7.5-7.5-7.5h-9.098c-1.197-7.511-4.164-14.435-8.453-20.343l6.452-6.452c2.929-2.929 2.929-7.678 0-10.606-2.929-2.929-7.678-2.929-10.606,0l-6.452,6.452c-5.907-4.29-12.832-7.257-20.343-8.453v-9.098c0-4.142-3.358-7.5-7.5-7.5s-7.5,3.358-7.5,7.5v9.098c-7.511,1.197-14.435,4.164-20.343,8.453l-6.452-6.452c-2.929-2.929-7.678-2.929-10.606,0-2.929,2.929-2.929,7.678 0,10.606l6.452,6.452c-4.29,5.907-7.257,12.832-8.453,20.343h-9.098c-4.142,0-7.5,3.358-7.5,7.5s3.358,7.5 7.5,7.5h9.098c1.197,7.511 4.164,14.435 8.453,20.343l-6.452,6.452c-2.929,2.929-2.929,7.678 0,10.606 1.464,1.464 3.384,2.197 5.303,2.197s3.839-0.732 5.303-2.197l6.452-6.452c5.907,4.29 12.832,7.257 20.343,8.453v9.098c0,4.142 3.358,7.5 7.5,7.5s7.5-3.358 7.5-7.5v-9.098c7.511-1.197 14.435-4.164 20.343-8.453l6.452,6.452c1.464,1.464 3.384,2.197 5.303,2.197s3.839-0.732 5.303-2.197c2.929-2.929 2.929-7.678 0-10.606l-6.452-6.452c4.29-5.907 7.257-12.832 8.453-20.343h9.098zm-56,25c-17.92,0-32.5-14.58-32.5-32.5s14.58-32.5 32.5-32.5 32.5,14.58 32.5,32.5-14.58,32.5-32.5,32.5z"/>
      <path d="m178.563,121c-7.995,0-14.5,6.505-14.5,14.5s6.505,14.5 14.5,14.5 14.5-6.505 14.5-14.5-6.505-14.5-14.5-14.5zm0,15c-0.276,0-0.5-0.224-0.5-0.5s0.224-0.5 0.5-0.5 0.5,0.224 0.5,0.5-0.224,0.5-0.5,0.5z"/>
      <path d="m306.563,96h-1.409c-0.773-3.152-2.015-6.123-3.659-8.825l1-1c2.929-2.929 2.929-7.678 0-10.606-2.929-2.929-7.678-2.929-10.606,0l-1,1c-2.702-1.644-5.672-2.886-8.825-3.659v-1.41c0-4.142-3.358-7.5-7.5-7.5s-7.5,3.358-7.5,7.5v1.409c-3.152,0.773-6.123,2.015-8.825,3.659l-1-1c-2.929-2.929-7.678-2.929-10.606,0-2.929,2.929-2.929,7.678 0,10.606l1,1c-1.644,2.702-2.886,5.672-3.659,8.825h-1.409c-4.142,0-7.5,3.358-7.5,7.5s3.358,7.5 7.5,7.5h1.409c0.773,3.152 2.015,6.123 3.659,8.825l-1,1c-2.929,2.929-2.929,7.678 0,10.606 1.464,1.464 3.384,2.197 5.303,2.197s3.839-0.732 5.303-2.197l1-1c2.702,1.644 5.672,2.886 8.825,3.659v1.409c0,4.142 3.358,7.5 7.5,7.5s7.5-3.358 7.5-7.5v-1.409c3.152-0.773 6.123-2.015 8.825-3.659l1,1c1.464,1.464 3.384,2.197 5.303,2.197s3.839-0.732 5.303-2.197c2.929-2.929 2.929-7.678 0-10.606l-1-1c1.644-2.702 2.886-5.672 3.659-8.825h1.409c4.142,0 7.5-3.358 7.5-7.5s-3.358-7.499-7.5-7.499zm-32,24c-9.098,0-16.5-7.402-16.5-16.5s7.402-16.5 16.5-16.5 16.5,7.402 16.5,16.5-7.402,16.5-16.5,16.5z"/>
      <path d="m293.843,167.75c-2.071-3.588-6.658-4.817-10.245-2.745l-1.512,.873c-2.316-2.042-5.035-3.635-8.022-4.644v-1.734c0-4.142-3.358-7.5-7.5-7.5s-7.5,3.358-7.5,7.5v1.734c-2.987,1.009-5.707,2.601-8.022,4.644l-1.512-.873c-3.587-2.072-8.174-0.842-10.245,2.745-2.071,3.587-0.842,8.174 2.745,10.245l1.497,.864c-0.302,1.501-0.462,3.052-0.462,4.641s0.16,3.14 0.462,4.641l-1.497,.864c-3.587,2.071-4.816,6.658-2.745,10.245 1.389,2.406 3.91,3.751 6.502,3.751 1.272,0 2.562-0.324 3.743-1.006l1.512-.873c2.316,2.042 5.035,3.635 8.022,4.644v1.734c0,4.142 3.358,7.5 7.5,7.5s7.5-3.358 7.5-7.5v-1.734c2.987-1.009 5.707-2.601 8.022-4.644l1.512,.873c1.181,0.682 2.471,1.006 3.743,1.006 2.592,0 5.113-1.346 6.502-3.751 2.071-3.587 0.842-8.174-2.745-10.245l-1.497-.864c0.302-1.501 0.462-3.052 0.462-4.641s-0.16-3.14-0.462-4.641l1.497-.864c3.587-2.071 4.816-6.658 2.745-10.245zm-35.78,15.75c0-4.687 3.813-8.5 8.5-8.5s8.5,3.813 8.5,8.5-3.813,8.5-8.5,8.5-8.5-3.813-8.5-8.5z"/>
    </g>
  </g>
</svg>
