<?xml version="1.0" encoding="UTF-8"?>
<svg id="_レイヤー_1" data-name="レイヤー 1" xmlns="http://www.w3.org/2000/svg" xmlns:xlink="http://www.w3.org/1999/xlink" viewBox="0 0 679.67 291.38">
  <defs>
    <style>
      .cls-1 {
        clip-path: url(#clippath-21);
      }

      .cls-2 {
        clip-path: url(#clippath-6);
      }

      .cls-3 {
        clip-path: url(#clippath-7);
      }

      .cls-4 {
        clip-path: url(#clippath-17);
      }

      .cls-5 {
        clip-path: url(#clippath-15);
      }

      .cls-6 {
        clip-path: url(#clippath-18);
      }

      .cls-7 {
        clip-path: url(#clippath-4);
      }

      .cls-8 {
        letter-spacing: 0em;
      }

      .cls-9 {
        fill: #231815;
        font-family: KozGoPro-Bold-90ms-RKSJ-H, 'Kozuka Gothic Pro';
        font-size: 18px;
        font-weight: 700;
      }

      .cls-10 {
        letter-spacing: 0em;
      }

      .cls-11 {
        letter-spacing: 0em;
      }

      .cls-12 {
        clip-path: url(#clippath-9);
      }

      .cls-13 {
        clip-path: url(#clippath-10);
      }

      .cls-14 {
        letter-spacing: 0em;
      }

      .cls-15 {
        fill: #fff;
      }

      .cls-16 {
        clip-path: url(#clippath-11);
      }

      .cls-17, .cls-18 {
        fill: none;
      }

      .cls-19 {
        fill: #3eb370;
      }

      .cls-19, .cls-20, .cls-21 {
        opacity: .4;
      }

      .cls-22 {
        clip-path: url(#clippath-1);
      }

      .cls-20 {
        fill: #00b9ef;
      }

      .cls-23 {
        letter-spacing: 0em;
      }

      .cls-24 {
        clip-path: url(#clippath-5);
      }

      .cls-25 {
        clip-path: url(#clippath-20);
      }

      .cls-26 {
        clip-path: url(#clippath-8);
      }

      .cls-27 {
        letter-spacing: 0em;
      }

      .cls-28 {
        clip-path: url(#clippath-3);
      }

      .cls-29 {
        clip-path: url(#clippath-12);
      }

      .cls-30 {
        clip-path: url(#clippath-14);
      }

      .cls-18 {
        clip-rule: evenodd;
      }

      .cls-31 {
        letter-spacing: 0em;
      }

      .cls-32 {
        fill: #b41d23;
        font-family: KozGoPro-Regular-90ms-RKSJ-H, 'Kozuka Gothic Pro';
        font-size: 14px;
      }

      .cls-33 {
        clip-path: url(#clippath-19);
      }

      .cls-34 {
        letter-spacing: 0em;
      }

      .cls-35 {
        letter-spacing: 0em;
      }

      .cls-21 {
        fill: #fabe00;
      }

      .cls-36 {
        letter-spacing: 0em;
      }

      .cls-37 {
        clip-path: url(#clippath-16);
      }

      .cls-38 {
        clip-path: url(#clippath-2);
      }

      .cls-39 {
        clip-path: url(#clippath-13);
      }

      .cls-40 {
        letter-spacing: 0em;
      }

      .cls-41 {
        clip-path: url(#clippath);
      }
    </style>
    <clipPath id="clippath">
      <rect class="cls-17" x="255.33" y="2.87" width="268.08" height="46.32"/>
    </clipPath>
    <clipPath id="clippath-1">
      <rect class="cls-17" x="161.72" y="26.03" width="202.2" height="46.32"/>
    </clipPath>
    <clipPath id="clippath-2">
      <rect class="cls-17" x="108.07" y="54.24" width="202.2" height="72.72"/>
    </clipPath>
    <clipPath id="clippath-3">
      <polygon class="cls-18" points="108.07 126.96 310.27 126.96 310.27 54.24 108.07 54.24 108.07 126.96 108.07 126.96"/>
    </clipPath>
    <clipPath id="clippath-4">
      <rect class="cls-17" x="108.07" y="54.24" width="202.2" height="72.72"/>
    </clipPath>
    <clipPath id="clippath-5">
      <rect class="cls-17" x="40.3" y="124.18" width="224.16" height="46.32"/>
    </clipPath>
    <clipPath id="clippath-6">
      <rect class="cls-17" x="-13.69" y="195.96" width="202.2" height="46.32"/>
    </clipPath>
    <clipPath id="clippath-7">
      <rect class="cls-17" x="155.27" y="152.98" width="180.24" height="46.32"/>
    </clipPath>
    <clipPath id="clippath-8">
      <rect class="cls-17" x="138.52" y="212.08" width="268.08" height="72.72"/>
    </clipPath>
    <clipPath id="clippath-9">
      <polygon class="cls-18" points="138.52 284.8 406.6 284.8 406.6 212.08 138.52 212.08 138.52 284.8 138.52 284.8"/>
    </clipPath>
    <clipPath id="clippath-10">
      <rect class="cls-17" x="138.52" y="212.08" width="268.08" height="72.72"/>
    </clipPath>
    <clipPath id="clippath-11">
      <rect class="cls-17" x="230.97" y="112.71" width="104.28" height="46.32"/>
    </clipPath>
    <clipPath id="clippath-12">
      <rect class="cls-17" x="306.96" y="32.03" width="136.32" height="46.32"/>
    </clipPath>
    <clipPath id="clippath-13">
      <rect class="cls-17" x="403.39" y="37.07" width="268.08" height="46.32"/>
    </clipPath>
    <clipPath id="clippath-14">
      <rect class="cls-17" x="293.21" y="137.22" width="173.76" height="46.32"/>
    </clipPath>
    <clipPath id="clippath-15">
      <rect class="cls-17" x="345.12" y="119.48" width="157.08" height="46.32"/>
    </clipPath>
    <clipPath id="clippath-16">
      <rect class="cls-17" x="491.84" y="126.28" width="244.44" height="42.12"/>
    </clipPath>
    <clipPath id="clippath-17">
      <rect class="cls-17" x="575.39" y="193.98" width="104.28" height="42.12"/>
    </clipPath>
    <clipPath id="clippath-18">
      <rect class="cls-17" x="366.53" y="225.26" width="304.44" height="66.12"/>
    </clipPath>
    <clipPath id="clippath-19">
      <polygon class="cls-18" points="366.53 291.38 670.97 291.38 670.97 225.26 366.53 225.26 366.53 291.38 366.53 291.38"/>
    </clipPath>
    <clipPath id="clippath-20">
      <rect class="cls-17" x="366.53" y="225.26" width="304.44" height="66.12"/>
    </clipPath>
    <clipPath id="clippath-21">
      <rect class="cls-17" x="447.94" y="100.52" width="244.44" height="42.12"/>
    </clipPath>
  </defs>
  <rect class="cls-15" x="-64.49" y="-37.42" width="796.13" height="372.9"/>
  <ellipse class="cls-19" cx="352.6" cy="86.09" rx="174.84" ry="83.23"/>
  <ellipse class="cls-20" cx="228.55" cy="198.9" rx="174.84" ry="83.23"/>
  <ellipse class="cls-21" cx="476.65" cy="198.9" rx="174.84" ry="83.23"/>
  <text class="cls-9" transform="translate(244.6 93.12)"><tspan x="0" y="0">モダン・ソフトウェア工学</tspan></text>
  <text class="cls-9" transform="translate(120.55 206.95)"><tspan x="0" y="0">伝統的・ソフトウェア工学</tspan></text>
  <text class="cls-9" transform="translate(404.65 185.91)"><tspan x="0" y="0">データサイエンス</tspan><tspan x="-17.65" y="31.5">大規模言語モデル・AI</tspan></text>
  <g class="cls-41">
    <text class="cls-32" transform="translate(268.57 29.39)"><tspan x="0" y="0">価値創造・課題解決指向</tspan></text>
  </g>
  <g class="cls-22">
    <text class="cls-32" transform="translate(174.94 52.64)"><tspan x="0" y="0">不確かさへの対処</tspan></text>
  </g>
  <g>
    <g class="cls-38">
      <text class="cls-32" transform="translate(121.29 80.85)"><tspan x="0" y="0">顧客との対話</tspan></text>
    </g>
    <g class="cls-28">
      <g class="cls-7">
        <text class="cls-32" transform="translate(121.29 107.24)"><tspan x="0" y="0">要求の創造・抽出</tspan></text>
      </g>
    </g>
  </g>
  <g class="cls-24">
    <text class="cls-32" transform="translate(53.59 150.8)"><tspan x="0" y="0">要求の分析・仕様化</tspan></text>
  </g>
  <g class="cls-2">
    <text class="cls-32" transform="translate(-.49 222.54)"><tspan x="0" y="0">再利用性・保守性</tspan></text>
  </g>
  <g class="cls-3">
    <text class="cls-32" transform="translate(168.55 179.56)"><tspan x="0" y="0">計画・見積もり</tspan></text>
  </g>
  <g>
    <g class="cls-26">
      <text class="cls-32" transform="translate(151.78 238.63)"><tspan x="0" y="0">論理的な正しさ・整合性</tspan></text>
    </g>
    <g class="cls-12">
      <g class="cls-13">
        <text class="cls-32" transform="translate(151.78 265.03)"><tspan x="0" y="0">バグの防止・分析・除去</tspan></text>
      </g>
    </g>
  </g>
  <g class="cls-16">
    <text class="cls-32" transform="translate(244.2 139.29)"><tspan class="cls-34" x="0" y="0">D</tspan><tspan class="cls-11" x="9.95" y="0">e</tspan><tspan x="17.51" y="0">v</tspan><tspan class="cls-8" x="24.7" y="0">O</tspan><tspan class="cls-10" x="35.01" y="0">p</tspan><tspan class="cls-35" x="43.58" y="0">s</tspan></text>
  </g>
  <g class="cls-29">
    <text class="cls-32" transform="translate(320.23 58.55)"><tspan x="0" y="0">アジャイル</tspan></text>
  </g>
  <g class="cls-39">
    <text class="cls-32" transform="translate(416.7 63.65)"><tspan x="0" y="0">チームのパフォーマンス</tspan></text>
  </g>
  <g class="cls-30">
    <text class="cls-32" transform="translate(306.52 163.86)"><tspan class="cls-8" x="0" y="0">LL</tspan><tspan x="14.22" y="0">M</tspan><tspan class="cls-11" x="26.38" y="0">/</tspan><tspan x="31.72" y="0">A</tspan><tspan class="cls-14" x="40.91" y="0">I</tspan><tspan class="cls-10" x="44.44" y="0" xml:space="preserve"> fo</tspan><tspan class="cls-34" x="60.33" y="0">r</tspan><tspan class="cls-36" x="65.16" y="0"> </tspan><tspan class="cls-31" x="68.52" y="0">S</tspan><tspan x="75.87" y="0">E</tspan></text>
  </g>
  <g class="cls-5">
    <text class="cls-32" transform="translate(358.42 146.07)"><tspan class="cls-31" x="0" y="0">S</tspan><tspan class="cls-27" x="7.35" y="0">E</tspan><tspan class="cls-10" x="14.7" y="0" xml:space="preserve"> fo</tspan><tspan class="cls-34" x="30.59" y="0">r</tspan><tspan class="cls-36" x="35.42" y="0"> </tspan><tspan class="cls-8" x="38.78" y="0">LL</tspan><tspan x="53" y="0">M</tspan><tspan class="cls-40" x="65.15" y="0">/</tspan><tspan x="70.5" y="0">AI</tspan></text>
  </g>
  <g class="cls-37">
    <text class="cls-32" transform="translate(514.9 151.23)"><tspan x="0" y="0">データエンジニアリング</tspan></text>
  </g>
  <g class="cls-4">
    <text class="cls-32" transform="translate(587.41 218.01)"><tspan x="0" y="0">機械学習</tspan></text>
  </g>
  <g>
    <g class="cls-6">
      <text class="cls-32" transform="translate(378.55 249.32)"><tspan x="0" y="0">データに基づく知識の</tspan><tspan class="cls-23" x="140" y="0">活</tspan><tspan x="153.93" y="0">用や</tspan></text>
    </g>
    <g class="cls-33">
      <g class="cls-25">
        <text class="cls-32" transform="translate(378.55 273.32)"><tspan x="0" y="0">データ駆動による高度</tspan><tspan class="cls-23" x="140" y="0">な</tspan><tspan x="153.93" y="0">自動化</tspan></text>
      </g>
    </g>
  </g>
  <g class="cls-1">
    <text class="cls-32" transform="translate(450.14 121.58)"><tspan x="0" y="0">ビジネス分析</tspan></text>
  </g>
</svg>